<svg xmlns="http://www.w3.org/2000/svg" width="246.58" height="163.304" viewBox="0 0 246.58 163.304">
  <path id="path4146" d="M158.1,430.879l-2.514-.6-1.006-5.974h1.509l.5-2.391h-3.52l-2.514,1.2-3.52.6-1.006-1.2-1.508,1.794-3.017.6v-1.793l-1.006,1.2-3.017.6-1.508,1.2h-2.514l-2.011-5.378h-1.509l-2.011-2.988h-1.509a9.124,9.124,0,0,0-3.017-1.192,8.834,8.834,0,0,1-2.514-.6l-2.514.6H116.36l-.5.6c-.924,2.711-1.561,2.354-2.011,0l-.5-3.584-3.52-3.586-1.006-1.2-3.017-3.586-2.514-.595a9.391,9.391,0,0,0-3.017-.6c-1.508,0-1.006-2.387-1.006-2.387l-.5-.6-1.006,1.792s-4.525,1.195-5.028-.6-4.023-7.17-4.023-7.17H82.671l-1.508-1.792-3.52-.6-1.508-1.793-1.509.6-1.508,1.2-5.028-1.2c-2.674-.86-4.82-6.114-7.04-10.754H59.54v4.181l-2.011,1.794-1.509-.6-2.011-2.389-2.514-.6-1.006.6-.5,1.195H48.478l-.5-1.195-.5-.6-.5,1.2c2.663,2.678,1.45,3.051,1.508,4.182l-1.508,2.391-3.017.6s.5,2.389-.5,1.792-4.023-1.792-4.023-1.792l-5.531-.6-.5-4.182,1.508-1.2.5-4.182c-.249,5.568-3.3-9.954-11.062-13.744l-2.011,1.793-3.52-2.39H13.28l-.5-1.194-2.011-.6v-1.195l1.006-1.195.5-2.988h6.034l1.006-1.2h4.526v-1.792l2.011.6,2.514-1.193,7.04-1.2,3.017,1.794.5.6.5-4.182.5-1.2-1.509-.6-.5-3.585-1.006-1.792H34.4l-1.006-1.2-2.514-.6-1.006-1.793H27.359l-.5,1.793-.5,1.794-1.006.6c.178,3.017.143,5.471-2.011,2.389l-.5,1.2-2.011-.6,1.005-2.392.5-1.792-1.508-1.2,1.005-1.793-.5-1.79H18.308l-.5-4.184,2.011-.6v-2.988l1.509-2.389,2.514-.6,1.006,1.2-.5,1.792-.5,1.794h7.543l.5,1.194H35.4l.5-1.793,4.525.6v-1.2l-3.52-.6s2.011-1.792,1.006-1.792a4.584,4.584,0,0,1-2.011-.6l-2.514,2.986-2.011-.6-2.514-.6-1.006-1.792,1.006-2.391,2.514-.6v-2.389H29.873l-2.011,1.792-3.52,1.794-1.006.6H21.828l-3.017,2.392-1.508-.6L15.794,329.3H14.788l-1.508,1.792-1.509.6H7.748L6.743,328.1l1.006-1.195H8.754l-1.006-2.988-1.006-2.389v-4.183h.5l1.508-.6-1.508-2.989-.5-2.39,4.525-7.171h3.52l3.017.6.5-4.183,1.508-1.2c.444.8,1.415.664,1.006,2.987l2.514-1.792c-1.137,1.11-1.29-.1-1.509-1.2l-1.508-1.792,6.034-1.2-.208,1.756,1.625-.909,2.606-.248-.5-1.793c-1.187-2.823,3.447-.176,4.023-.6.6-.445.5-1.794.5-1.794,1.135-.292,2-1.23,4.023.6l1.006,1.2,1.508.6h2.011l3.52-4.184s.5,1.2,1.508-.6S50.25,290,50.25,290l3.495.214.767-.351,1.508-2.39,2.514.6.5-2.388h1.509c0,1.393,3.025-.209,0,4.182l.355,3.024c-.434.823,1.664-1.269,1.656,1.757l.5-1.794h2.011l.5,2.989h1.508l-1.006-2.392,1.509-2.987v-2.391c-.235-1.838,3.661-.872,6.537-.6l2.514.6c1.358,1,4.887,2.516,4.023,2.988v-1.194c.5-1.4,1.006-2.388,1.509,1.194l1.509,1.2,1.447.139c-2.378-3.224-.493-.327-.828-1.122L84,289.617l.178-1.548.5-1.791H86.19l.5-1.792H83.676V280.3l1.508.6v-2.989H87.2v-2.987c1.212.012,2.7-.634,3.489.387l1.036-1.582h1.006l1.006,2.39,2.22.176.8,2.812c.783-2.056,1.336-4.793,3.017-4.182h1.006l.5-1.2H106.3c-.525-3.439.7-2.726,1.509-2.986l1.006-.6,1.006,1.794,1.006,2.389,1.509-1.2c1.3-.8.574-1.592,4.023-2.387.671.341,1.341-1.063,2.011,1.791a6.513,6.513,0,0,1,0,4.185c.911-.628-.707-2.588,4.023-1.2h.5q1.317,2.218.5,3.585l-1.508,2.989,4.023-.6,2.011,1.792v1.793l-.5.6,1.006,2.986c.954.858,3.194.189,2.011,3.586l3.52,1.194,1.508,2.392.5,3.585v2.391a9.763,9.763,0,0,1,5.384,3.935l.533,3.795.914-.524,2.22-2.427,3.017,1.195c.712-6.376,2.973-5.39,4.526-7.768h2.011l1.006-4.78,3.52-1.2,2.514,1.794,1.508-2.392,1.006.6c.8-1.2.512-2.39,3.017-3.585l1.508,1.2,1.006,2.39-.5,2.39-1.006,1.2c1.118-.861,1.975-2.962,3.52-1.792l.5.6.5,1.792.442,1.684A5.447,5.447,0,0,0,176.2,300l.295-2.885,3.225-1.3h3.52l2.011.6,1.006-1.791,1.006-.6s-1.006-2.388,0-2.388h3.017l1.006-1.795h4.526l.5-1.195,2.011.6v4.78l-1.509.6.756,4.768,11.312.011,6.216-2.2c.566,11.167,8.96,23.017,10.919,20.768l8.741-8.55c3.686,1.193,5.021-.041,11.6,4.008l.743.31-.245,2.686.245,2.692V323.6l-.477,2.073,1.986.026-.993,3.289.5,3.571.473,2.424c-2.989.767-4.239,2.913-3.241,6.838l.511,1.206.744,2.405,1.01,7.129c-.232,4.733.916,5.512,1.5,8.08l1.758,6.266.245,2.406-6.782.6-2.755,1.793a3.7,3.7,0,0,0,0,4.457c-3.1,7.187-4.34,9.482-6.287,15.266l-3.017.6-2.011-1.793-2.011.6-3.017-4.183h-4.525c.227,1.194,1.451,2.392-.5,3.585l-4.285,2.385-.5.6-2.011,1.2c-4.209-.28-3.054,4.181-2.011,5.379-2.514.2-5.028,3.262-7.542.6l-1.006,1.2h-1.508l-.5-1.2s-4.192-.722-4.023.6c.3,2.34-3.691,1.311-3.52.6l-2.067,3.306c-4.3-.458-7.263,1.351-9.845,2.933a28.168,28.168,0,0,0-.147,12.585l-3.271.3-1.006,2.987-.761.592-1.508-1.793-1.006.6-1.006,1.195h-1.006l0-2.385-3.765.894-.761,3.293c-2.429,2.2-5.191,1.627-8.05,1.783Z" transform="translate(-5.637 -268.76)" fill="rgba(0,255,128,0)" stroke="#f0e" stroke-linecap="round" stroke-width="2"/>
</svg>
